<svg version="1.1" id="Layer_1" xmlns="http://www.w3.org/2000/svg" xmlns:xlink="http://www.w3.org/1999/xlink" x="0px" y="0px"
	 width="100%" viewBox="0 0 976 973" enable-background="new 0 0 976 973" xml:space="preserve">
<path fill="#000000" opacity="1.000000" stroke="none" 
	d="
M529.000000,974.000000 
	C352.666656,974.000000 176.833328,974.000000 1.000000,974.000000 
	C1.000000,649.666687 1.000000,325.333344 1.000000,1.000000 
	C326.333344,1.000000 651.666687,1.000000 977.000000,1.000000 
	C977.000000,325.333344 977.000000,649.666687 977.000000,974.000000 
	C827.833313,974.000000 678.666687,974.000000 529.000000,974.000000 
M514.812317,946.978271 
	C516.309753,946.959778 517.826599,947.091187 519.301575,946.899841 
	C536.700195,944.643433 554.332703,943.456360 571.429321,939.781128 
	C596.204407,934.455383 621.100830,928.794128 644.991333,920.520752 
	C666.404602,913.105347 686.760193,902.436035 707.169434,892.365356 
	C742.587097,874.889038 774.297485,851.881897 803.238892,825.115356 
	C823.791199,806.107422 842.631409,785.432068 859.062744,762.753113 
	C879.487061,734.562866 897.966370,705.095764 911.795837,673.056763 
	C919.094421,656.147888 925.757385,638.862183 931.177429,621.275208 
	C936.092590,605.326355 939.619385,588.858398 942.504944,572.399597 
	C945.732849,553.987610 948.995789,535.377075 949.622864,516.764648 
	C950.444214,492.386841 949.439697,467.873993 947.840149,443.509827 
	C946.386963,421.375000 942.506531,399.501648 937.143494,377.866302 
	C927.665894,339.632202 915.688843,302.364014 895.932556,268.096619 
	C884.898804,248.958527 873.408875,230.008301 860.869629,211.839523 
	C852.421387,199.598404 841.846924,188.813370 832.105835,177.478180 
	C813.374451,155.681366 791.672852,137.020294 769.219849,119.286743 
	C752.524109,106.100357 734.554077,94.781387 715.770508,84.595871 
	C689.487061,70.343575 662.278503,58.391647 633.884094,49.271317 
	C611.310303,42.020569 588.533142,35.213306 564.788086,32.742268 
	C545.187866,30.702557 525.602661,27.960768 505.944366,27.159840 
	C472.032104,25.778168 438.267120,28.034775 404.721619,33.821613 
	C379.279846,38.210491 354.491882,44.890244 330.225891,53.449123 
	C315.197357,58.749859 300.140778,64.339745 285.901154,71.418030 
	C266.886841,80.869759 247.889893,90.753670 230.294601,102.553238 
	C212.014130,114.812309 194.975922,129.063202 178.191025,143.377106 
	C158.167435,160.452927 139.610382,179.250046 124.015717,200.461166 
	C110.850754,218.367554 99.250580,237.440002 87.255531,256.186829 
	C73.205589,278.145142 62.442978,301.774658 54.141209,326.401794 
	C44.226208,355.814575 36.074680,385.701111 31.714216,416.580872 
	C28.250208,441.112152 25.374987,465.624237 25.978182,490.434998 
	C26.184099,498.904785 26.338158,507.391296 27.009766,515.830872 
	C28.166193,530.362854 28.989559,544.977051 31.246536,559.353638 
	C35.443798,586.089661 41.360874,612.515015 50.617756,638.009705 
	C61.248047,667.287048 74.469543,695.298340 90.331680,722.238037 
	C109.625038,755.005127 132.927887,784.480225 159.300705,811.580750 
	C182.907150,835.838684 209.333115,856.684875 237.999420,874.851990 
	C269.650116,894.910583 303.186462,911.022583 338.279358,923.691833 
	C363.096649,932.651367 388.936157,938.456421 415.149384,941.924866 
	C431.393646,944.074280 447.761749,945.287476 464.995605,946.970337 
	C481.301849,946.950562 497.608124,946.930847 514.812317,946.978271 
z"/>
<path fill="#0D3D26" opacity="1.000000" stroke="none" 
	d="
M464.074280,946.920898 
	C447.761749,945.287476 431.393646,944.074280 415.149384,941.924866 
	C388.936157,938.456421 363.096649,932.651367 338.279358,923.691833 
	C303.186462,911.022583 269.650116,894.910583 237.999420,874.851990 
	C209.333115,856.684875 182.907150,835.838684 159.300705,811.580750 
	C132.927887,784.480225 109.625038,755.005127 90.331680,722.238037 
	C74.469543,695.298340 61.248047,667.287048 50.617756,638.009705 
	C41.360874,612.515015 35.443798,586.089661 31.246536,559.353638 
	C28.989559,544.977051 28.166193,530.362854 27.009766,515.830872 
	C26.338158,507.391296 26.184099,498.904785 25.978182,490.434998 
	C25.374987,465.624237 28.250208,441.112152 31.714216,416.580872 
	C36.074680,385.701111 44.226208,355.814575 54.141209,326.401794 
	C62.442978,301.774658 73.205589,278.145142 87.255531,256.186829 
	C99.250580,237.440002 110.850754,218.367554 124.015717,200.461166 
	C139.610382,179.250046 158.167435,160.452927 178.191025,143.377106 
	C194.975922,129.063202 212.014130,114.812309 230.294601,102.553238 
	C247.889893,90.753670 266.886841,80.869759 285.901154,71.418030 
	C300.140778,64.339745 315.197357,58.749859 330.225891,53.449123 
	C354.491882,44.890244 379.279846,38.210491 404.721619,33.821613 
	C438.267120,28.034775 472.032104,25.778168 505.944366,27.159840 
	C525.602661,27.960768 545.187866,30.702557 564.788086,32.742268 
	C588.533142,35.213306 611.310303,42.020569 633.884094,49.271317 
	C662.278503,58.391647 689.487061,70.343575 715.770508,84.595871 
	C734.554077,94.781387 752.524109,106.100357 769.219849,119.286743 
	C791.672852,137.020294 813.374451,155.681366 832.105835,177.478180 
	C841.846924,188.813370 852.421387,199.598404 860.869629,211.839523 
	C873.408875,230.008301 884.898804,248.958527 895.932556,268.096619 
	C915.688843,302.364014 927.665894,339.632202 937.143494,377.866302 
	C942.506531,399.501648 946.386963,421.375000 947.840149,443.509827 
	C949.439697,467.873993 950.444214,492.386841 949.622864,516.764648 
	C948.995789,535.377075 945.732849,553.987610 942.504944,572.399597 
	C939.619385,588.858398 936.092590,605.326355 931.177429,621.275208 
	C925.757385,638.862183 919.094421,656.147888 911.795837,673.056763 
	C897.966370,705.095764 879.487061,734.562866 859.062744,762.753113 
	C842.631409,785.432068 823.791199,806.107422 803.238892,825.115356 
	C774.297485,851.881897 742.587097,874.889038 707.169434,892.365356 
	C686.760193,902.436035 666.404602,913.105347 644.991333,920.520752 
	C621.100830,928.794128 596.204407,934.455383 571.429321,939.781128 
	C554.332703,943.456360 536.700195,944.643433 519.301575,946.899841 
	C517.826599,947.091187 516.309753,946.959778 514.067505,946.668701 
	C497.476593,946.256165 481.630463,946.143921 465.784180,946.087280 
	C465.215210,946.085266 464.644287,946.630676 464.074280,946.920898 
M601.460632,691.556641 
	C601.460632,691.556641 601.352417,691.478394 601.488403,690.927246 
	C601.172668,690.840332 600.856934,690.753479 600.444153,690.557434 
	C600.444153,690.557434 600.334351,690.461243 600.485168,689.962036 
	C600.209351,689.927979 599.933594,689.893921 599.346985,689.754944 
	C599.346985,689.754944 599.176208,689.474976 599.457947,688.828064 
	C596.551086,685.630371 593.459351,682.813782 588.564026,683.515320 
	C588.564026,683.515320 588.475159,683.531555 588.574341,682.789978 
	C586.640625,681.917969 584.706970,681.046021 582.885437,680.143555 
	C582.885437,680.143555 582.864929,680.257996 582.712402,679.561584 
	C581.064880,678.765747 579.417419,677.969910 577.896423,677.146545 
	C577.896423,677.146545 577.874634,677.274170 577.660767,676.675415 
	C577.084900,676.460327 576.509033,676.245300 575.984253,675.995239 
	C575.984253,675.995239 575.982483,676.057190 575.737244,675.574097 
	C575.416443,675.422546 575.095642,675.270996 574.887085,675.101562 
	C574.887085,675.101562 574.862732,675.212524 574.848755,674.465942 
	C574.091187,674.241882 573.333557,674.017883 572.373779,673.685913 
	C572.373779,673.685913 572.225281,673.511292 572.413452,672.888489 
	C571.878296,672.635864 571.343140,672.383179 570.901611,672.101562 
	C570.901611,672.101562 570.875488,672.196045 570.862305,671.464294 
	C570.113953,671.094971 569.365601,670.725647 568.748474,670.264832 
	C568.748474,670.264832 568.688904,670.413269 568.610840,669.816223 
	C568.270142,669.649048 567.929443,669.481873 567.740540,669.261902 
	C567.740540,669.261902 567.690857,669.414734 567.606018,668.817444 
	C567.259460,668.664673 566.912903,668.511902 566.895325,668.183411 
	C566.895325,668.183411 566.593201,668.402100 566.778931,667.666138 
	C565.793762,666.814514 564.808594,665.962891 563.917603,665.084595 
	C563.917603,665.084595 563.884094,665.176575 563.888062,664.501221 
	C563.411499,664.204468 562.934875,663.907715 562.416504,663.495667 
	C562.416504,663.495667 562.323181,663.416199 562.663330,662.756836 
	C561.705627,661.535400 560.747925,660.313965 559.898743,659.082031 
	C559.898743,659.082031 559.873291,659.188049 559.949036,658.395020 
	C558.301086,652.930664 556.653198,647.466248 555.002869,641.064331 
	C555.000854,546.167175 554.981201,451.270050 555.029785,356.372925 
	C555.033752,348.591949 555.501770,340.811218 556.360962,332.721710 
	C556.549194,332.102539 556.737427,331.483398 556.946289,330.947693 
	C556.946289,330.947693 556.862732,330.927460 557.528015,330.909546 
	C557.762573,330.431976 557.997131,329.954437 558.389038,329.311127 
	C558.389038,329.311127 558.597534,329.217438 559.341248,329.620758 
	C562.584778,329.084015 565.825745,328.101135 569.072327,328.082214 
	C591.704834,327.950195 614.355469,327.510834 636.963379,328.270416 
	C646.043640,328.575531 655.046631,331.580414 664.050537,333.515808 
	C666.751831,334.096497 669.337463,335.215302 672.658752,336.161194 
	C678.784424,341.771759 684.910034,347.382294 690.641541,353.323456 
	C691.216370,353.806305 691.791260,354.289124 692.189026,354.823059 
	C692.189026,354.823059 692.209229,354.639893 692.321655,355.217194 
	C692.621887,355.445984 692.922180,355.674805 693.106384,355.915802 
	C693.106384,355.915802 693.131775,355.801910 693.114746,356.489014 
	C693.599365,356.791779 694.084045,357.094543 694.579773,357.506317 
	C694.579773,357.506317 694.678589,357.553619 694.340942,358.253571 
	C695.069580,358.907867 695.798279,359.562134 696.660339,360.369843 
	C696.660339,360.369843 696.752563,360.550995 696.511292,361.099854 
	C696.816162,361.311737 697.121094,361.523621 697.241333,361.794159 
	C697.241333,361.794159 697.269470,361.602478 697.327637,362.186584 
	C697.604004,362.440765 697.880371,362.694916 698.058167,362.948608 
	C698.058167,362.948608 698.080017,362.852570 698.090393,363.570862 
	C699.138672,365.013733 700.186951,366.456604 701.112732,367.910675 
	C701.112732,367.910675 701.141602,367.791107 701.059753,368.557251 
	C701.872375,369.593384 702.684998,370.629517 703.379883,371.749817 
	C703.379883,371.749817 703.409241,371.608093 703.225159,372.320587 
	C703.679749,372.720581 704.134399,373.120575 704.329102,373.529785 
	C704.329102,373.529785 704.583984,373.581360 704.303467,374.257996 
	C704.731506,374.602295 705.159546,374.946594 705.645752,375.438324 
	C705.645752,375.438324 705.704529,375.585571 705.473145,376.121674 
	C705.735718,376.376495 705.998230,376.631348 706.127319,376.902283 
	C706.127319,376.902283 706.155823,376.770935 706.130554,377.457275 
	C706.606445,377.751373 707.082397,378.045441 707.556091,378.448151 
	C707.556091,378.448151 707.658325,378.485016 707.503052,379.077637 
	C707.845764,379.198425 708.188477,379.319214 708.263672,379.962311 
	C708.363220,379.793915 708.462830,379.625519 708.433044,380.212341 
	C710.275146,381.417206 712.100037,383.620514 713.962402,383.652740 
	C721.698975,383.786591 729.479187,383.579803 737.170227,382.787628 
	C739.392090,382.558777 741.369446,379.957031 743.543701,378.485260 
	C743.543701,378.485260 743.554382,378.391235 744.269165,378.695038 
	C744.904175,377.958069 745.539185,377.221069 746.332581,376.301056 
	C746.332581,376.301056 746.549805,376.194336 747.057129,376.453491 
	C747.127563,376.145111 747.197998,375.836761 747.385986,375.422241 
	C747.385986,375.422241 747.492920,375.305450 748.061523,375.487549 
	C748.149475,375.156799 748.237366,374.826019 748.431580,374.453430 
	C748.431580,374.453430 748.454651,374.341644 749.085449,374.484039 
	C749.377991,373.961578 749.670593,373.439087 749.987610,372.984192 
	C749.987610,372.984192 749.916199,372.976532 750.392700,372.727753 
	C750.576538,372.424622 750.760376,372.121490 750.951721,371.931122 
	C750.951721,371.931122 750.839783,371.915558 751.581482,371.873810 
	C751.825073,371.099213 752.068726,370.324615 752.411560,369.507050 
	C752.411560,369.507050 752.410950,369.398926 753.119202,369.465027 
	C753.283386,368.848022 753.447571,368.230988 753.660706,367.765320 
	C753.660706,367.765320 753.514526,367.702545 754.267944,367.647583 
	C755.490967,364.756653 756.713989,361.865723 757.971680,358.041260 
	C757.979553,323.771149 758.044312,289.500793 757.883118,255.231476 
	C757.870728,252.591705 756.267151,249.959427 755.530457,247.201675 
	C755.530457,247.201675 755.573853,247.372559 755.766052,246.675217 
	C755.391785,246.149704 755.017578,245.624176 754.112061,244.691299 
	C749.797363,234.877487 741.562927,230.032700 732.082947,226.556808 
	C730.004395,226.373123 727.925964,226.029266 725.847351,226.028778 
	C626.046875,226.004761 526.246399,226.011490 426.445892,226.012314 
	C366.632263,226.012802 306.818604,226.000397 247.005020,226.055725 
	C245.416992,226.057190 243.829620,226.774689 241.724258,227.681488 
	C239.839996,228.130981 237.955734,228.580460 235.287247,229.025131 
	C233.232422,230.410492 231.177597,231.795868 229.074615,233.075165 
	C229.074615,233.075165 229.177612,233.129608 228.530960,233.124390 
	C228.288605,233.571777 228.046249,234.019165 227.632095,234.771713 
	C227.632095,234.771713 227.297745,234.875839 226.915482,234.624344 
	C226.915482,234.624344 226.591522,234.942322 226.591522,234.942322 
	C226.591522,234.942322 226.800888,235.347336 226.671951,235.653244 
	C226.671951,235.653244 226.367233,235.784958 225.929459,235.580566 
	C225.929459,235.580566 225.591248,235.919815 225.591248,235.919815 
	C225.591248,235.919815 225.792679,236.356049 225.662048,236.670212 
	C225.662048,236.670212 225.348190,236.801620 224.966507,236.580933 
	C224.966507,236.580933 224.666626,236.895096 224.666626,236.895096 
	C224.666626,236.895096 224.944885,237.230743 224.840851,237.659164 
	C224.840851,237.659164 224.451584,237.866196 223.863083,237.646530 
	C223.630325,238.166626 223.397583,238.686722 223.093033,239.086090 
	C223.093033,239.086090 223.214828,239.156036 222.458359,239.159607 
	C222.045319,240.190353 221.632278,241.221100 221.182968,242.133728 
	C221.182968,242.133728 221.303696,242.159988 220.676208,242.395172 
	C220.521317,243.011658 220.366440,243.628143 220.172379,244.131165 
	C220.172379,244.131165 220.290573,244.151947 219.676300,244.374847 
	C219.488617,244.969330 219.300934,245.563797 219.094315,246.061554 
	C219.094315,246.061554 219.192154,246.073441 218.521851,246.424728 
	C218.016205,247.628052 217.167786,248.802582 217.063782,250.039673 
	C216.592834,255.642181 216.060287,261.261444 216.041321,266.876312 
	C215.942947,295.992218 215.857651,325.109894 216.124268,354.223694 
	C216.170959,359.321381 215.838654,365.207336 221.488113,368.561340 
	C221.488113,368.561340 221.570801,368.593567 221.436890,369.143433 
	C221.688431,369.396637 221.939972,369.649841 222.101044,369.914001 
	C222.101044,369.914001 222.126862,369.826630 222.122467,370.499390 
	C222.588135,370.830994 223.053802,371.162598 223.411835,371.614960 
	C223.411835,371.614960 223.565948,371.565735 223.319931,372.274506 
	C223.970078,372.775787 224.620239,373.277039 225.164581,373.820831 
	C225.164581,373.820831 225.198700,373.712006 225.332687,374.263977 
	C225.647980,374.447784 225.963272,374.631561 226.173431,374.846222 
	C226.173431,374.846222 226.210846,374.743225 226.140366,375.495911 
	C227.458649,376.307922 228.776932,377.119904 230.023026,377.995941 
	C230.023026,377.995941 230.060608,377.907074 230.062088,378.502045 
	C230.704239,378.687012 231.346390,378.871979 232.707870,379.153229 
	C234.655090,380.030273 236.602249,380.907501 238.549545,381.784363 
	C245.173828,384.767242 251.957626,384.921051 259.659363,382.933014 
	C260.901428,382.109222 262.143463,381.285461 263.499512,380.422668 
	C263.499512,380.422668 263.574310,380.328217 264.275299,380.665375 
	C265.387878,379.312347 266.500458,377.959320 267.674835,376.739594 
	C267.674835,376.739594 267.538116,376.685883 268.193939,376.594269 
	C268.439880,376.022247 268.685852,375.450195 268.968903,374.955780 
	C268.968903,374.955780 268.884430,374.939514 269.592560,374.905701 
	C271.030029,372.221069 272.467468,369.536407 273.929688,366.934479 
	C273.929688,366.934479 273.843384,366.932922 274.354889,366.663177 
	C274.417938,366.298920 274.481018,365.934631 274.621704,365.955414 
	C274.621704,365.955414 274.501740,365.581390 275.262085,365.600006 
	C275.621765,364.594818 275.981445,363.589630 276.433014,362.524750 
	C276.433014,362.524750 276.450806,362.416626 277.126434,362.485352 
	C277.357300,361.911713 277.588165,361.338074 277.850006,360.884674 
	C277.850006,360.884674 277.727692,360.863251 278.279877,360.643768 
	C278.367401,360.278076 278.454926,359.912415 278.656281,359.793732 
	C278.656281,359.793732 278.480377,359.586304 279.156372,359.559082 
	C279.400269,358.982605 279.644165,358.406158 279.918365,357.921082 
	C279.918365,357.921082 279.825897,357.894135 280.566986,357.862335 
	C280.843170,357.090637 281.119385,356.318939 281.491272,355.548584 
	C281.491272,355.548584 281.456512,355.459412 282.121613,355.518188 
	C282.383179,354.961792 282.644775,354.405396 282.928497,353.938263 
	C282.928497,353.938263 282.836609,353.934265 283.356995,353.721375 
	C283.526154,353.396973 283.695343,353.072601 283.886780,352.893036 
	C283.886780,352.893036 283.741791,352.871948 284.291565,352.678345 
	C284.452515,352.339142 284.613495,351.999939 284.810364,351.820648 
	C284.810364,351.820648 284.650604,351.784027 285.228241,351.627960 
	C285.357605,351.273102 285.486969,350.918213 285.688202,350.706665 
	C285.688202,350.706665 285.547638,350.629486 286.141510,350.574799 
	C286.230927,350.225769 286.320343,349.876770 286.505646,349.514221 
	C286.505646,349.514221 286.511902,349.417572 287.070831,349.513336 
	C287.143829,349.197205 287.216797,348.881042 287.404785,348.411957 
	C287.404785,348.411957 287.555664,348.294220 288.052429,348.466370 
	C288.099579,348.183838 288.146698,347.901306 288.325806,347.324738 
	C288.325806,347.324738 288.619141,347.191223 289.049408,347.427826 
	C289.049408,347.427826 289.390472,347.082214 289.390472,347.082214 
	C289.390472,347.082214 289.132874,346.668701 289.272156,346.289124 
	C289.272156,346.289124 289.650085,346.145447 290.064148,346.407684 
	C290.064148,346.407684 290.409454,346.066254 290.409454,346.066254 
	C290.409454,346.066254 290.173401,345.639801 290.305969,345.328918 
	C290.305969,345.328918 290.615448,345.193024 291.059021,345.427216 
	C291.059021,345.427216 291.410645,345.076172 291.410645,345.076172 
	C291.410645,345.076172 291.179840,344.634399 291.310211,344.337402 
	C291.310211,344.337402 291.604828,344.201782 292.082642,344.427887 
	C292.154480,344.139099 292.226288,343.850281 292.412903,343.430664 
	C292.412903,343.430664 292.545624,343.318024 293.106293,343.482330 
	C293.265442,343.165100 293.424561,342.847870 293.798676,342.725647 
	C293.798676,342.725647 293.543610,342.587158 294.145538,342.593414 
	C294.356171,342.277588 294.566803,341.961761 294.816895,341.806946 
	C294.816895,341.806946 294.654755,341.772400 295.228760,341.668213 
	C295.444519,341.361816 295.660278,341.055420 295.896576,340.889587 
	C295.896576,340.889587 295.756195,340.868134 296.295197,340.729919 
	C296.516205,340.445801 296.737213,340.161652 296.957916,339.957550 
	C296.957916,339.957550 296.881378,339.934113 297.546753,339.904663 
	C297.932831,339.454590 298.318939,339.004547 298.768066,338.712738 
	C298.768066,338.712738 298.601898,338.675171 299.186401,338.649963 
	C299.425751,338.363525 299.665131,338.077087 299.915985,337.897156 
	C299.915985,337.897156 299.811920,337.871826 300.495361,337.886871 
	C300.845520,337.416534 301.195679,336.946198 301.705505,336.775238 
	C301.705505,336.775238 301.599457,336.452942 302.257599,336.706329 
	C302.572479,336.295227 302.887390,335.884094 303.376282,335.276489 
	C303.376282,335.276489 303.624756,335.192078 304.294678,335.608795 
	C307.487457,334.376282 310.609863,332.894836 313.889008,331.967834 
	C319.202911,330.465729 324.619659,329.327484 330.931061,328.019409 
	C359.679596,328.311890 388.428101,328.604370 417.067444,328.924347 
	C417.067444,328.924347 417.067810,328.811768 417.337616,329.344696 
	C417.710907,329.451721 418.084229,329.558746 418.318420,329.634094 
	C418.318420,329.634094 418.437073,329.554871 418.342072,329.937256 
	C418.557861,329.977875 418.773621,330.018494 419.574371,330.177673 
	C420.090881,330.971985 420.607361,331.766296 421.054199,333.458710 
	C421.366394,337.230438 421.923767,341.000580 421.948547,344.774200 
	C422.058289,361.514374 422.015228,378.255524 422.000824,395.933746 
	C421.680206,408.556427 421.148590,421.177887 421.074066,433.802032 
	C420.666077,502.896423 420.370270,571.991455 419.987518,641.921021 
	C418.898926,650.404297 416.342438,658.379761 410.874084,665.061707 
	C408.194153,668.336426 404.830963,671.052063 401.191742,674.113770 
	C400.913361,674.556152 400.634979,674.998596 400.276825,675.325317 
	C400.276825,675.325317 400.413422,675.358276 399.826691,675.363403 
	C399.586151,675.649109 399.345612,675.934875 399.090851,676.112244 
	C399.090851,676.112244 399.197021,676.138062 398.514648,676.121094 
	C398.195831,676.598022 397.877014,677.075012 397.475159,677.513245 
	C397.475159,677.513245 397.445160,677.599854 396.879700,677.450012 
	C396.627869,677.717346 396.376068,677.984680 396.105560,678.134827 
	C396.105560,678.134827 396.220673,678.163574 395.531464,678.123108 
	C395.145569,678.584473 394.759674,679.045837 394.003723,679.263306 
	C394.003723,679.263306 394.394867,679.471863 393.713318,679.261292 
	C393.367645,679.691589 393.021973,680.121887 392.528656,680.650513 
	C392.528656,680.650513 392.367096,680.723633 391.860168,680.486145 
	C391.601593,680.720154 391.343018,680.954224 391.082214,681.088013 
	C391.082214,681.088013 391.177612,681.118713 390.514740,681.100586 
	C390.039398,681.477234 389.564087,681.853882 389.085663,682.109009 
	C389.085663,682.109009 389.202057,682.144165 388.412689,682.061401 
	C384.930969,683.529053 380.296204,682.922974 378.469360,687.520264 
	C378.469360,687.520264 378.447723,687.614136 377.760834,687.334717 
	C377.204437,687.942322 376.648041,688.549988 376.068970,689.067871 
	C376.068970,689.067871 376.156677,689.097534 375.498505,689.104309 
	C375.257660,689.568909 375.016815,690.033508 374.620026,690.716614 
	C374.620026,690.716614 374.373352,690.822449 373.944244,690.578674 
	C373.944244,690.578674 373.599365,690.924683 373.599365,690.924683 
	C373.599365,690.924683 373.844543,691.349182 373.706940,691.699707 
	C373.706940,691.699707 373.356934,691.838867 372.955292,691.583801 
	C372.955292,691.583801 372.625763,691.918701 372.625763,691.918701 
	C372.625763,691.918701 372.901031,692.301697 372.797485,692.649841 
	C372.797485,692.649841 372.482361,692.830505 371.876312,692.613953 
	C371.631073,693.143250 371.385834,693.672546 371.114594,694.086426 
	C371.114594,694.086426 371.231995,694.100281 370.693604,694.332336 
	C370.565918,694.686951 370.438232,695.041565 370.272034,695.219666 
	C370.272034,695.219666 370.443329,695.277039 369.784454,695.405884 
	C369.561615,695.995544 369.338806,696.585205 369.089996,697.075317 
	C369.089996,697.075317 369.192688,697.081848 368.695190,697.348206 
	C368.688690,697.696655 368.682190,698.045044 368.597992,698.489990 
	C368.597992,698.489990 368.568970,698.610474 367.874725,698.560303 
	C367.824432,699.152710 367.774139,699.745178 367.673584,700.519836 
	C367.673584,700.519836 367.576630,700.682129 366.847839,700.559814 
	C365.624390,704.733154 363.317230,708.942993 363.455902,713.070557 
	C363.623596,718.062073 365.861969,722.984070 367.090576,727.948547 
	C367.090576,727.948547 367.106262,727.835266 367.094269,728.512085 
	C367.545776,728.912842 367.997314,729.313599 368.324310,729.775696 
	C368.324310,729.775696 368.369110,729.644348 368.213318,730.344238 
	C368.659943,730.730652 369.106537,731.117126 369.186829,731.527039 
	C369.186829,731.527039 369.553223,731.549316 369.431366,732.125183 
	C369.703552,732.376160 369.975739,732.627136 370.130768,732.895508 
	C370.130768,732.895508 370.159760,732.780640 370.130585,733.462952 
	C370.600342,733.774902 371.070099,734.086914 371.536957,734.500854 
	C371.536957,734.500854 371.633179,734.534668 371.492859,735.109070 
	C371.803894,735.300232 372.114960,735.491455 372.282318,735.744507 
	C372.282318,735.744507 372.364990,735.611694 372.209656,736.383301 
	C373.289032,737.084900 374.368378,737.786499 374.961395,738.883362 
	C375.125946,738.755859 375.290497,738.628296 375.397064,739.252319 
	C376.726746,739.911011 378.056396,740.569702 379.572845,741.316528 
	C379.572845,741.316528 379.726349,741.454712 379.607697,742.126709 
	C380.186829,742.176758 380.765930,742.226807 381.537506,742.338074 
	C381.537506,742.338074 381.697937,742.460754 381.511230,743.067810 
	C381.999390,743.382385 382.487549,743.696899 383.474731,744.555237 
	C384.691772,744.677246 385.908783,744.799255 387.024506,744.937439 
	C387.024506,744.937439 387.025848,744.834839 387.484070,745.483459 
	C390.734619,745.985718 393.984558,746.921387 397.235779,746.926025 
	C458.147095,747.013367 519.058594,747.018066 579.969849,746.907104 
	C582.987061,746.901611 586.002136,745.687256 589.763977,745.010254 
	C590.941101,744.156067 592.118225,743.301880 593.458130,742.327393 
	C593.458130,742.327393 593.651123,742.266724 594.149231,742.510620 
	C594.409058,742.281433 594.668884,742.052307 594.931274,741.921448 
	C594.931274,741.921448 594.836487,741.895386 595.503906,741.903931 
	C595.947327,741.491089 596.390747,741.078247 596.865906,740.805298 
	C596.865906,740.805298 596.726257,740.772339 597.464233,740.871277 
	C599.946289,739.218933 604.020325,739.081482 603.746704,735.018921 
	C603.665955,734.858398 603.585144,734.697876 604.047180,734.559204 
	C604.071594,734.264587 604.096008,733.970032 604.211243,733.335022 
	C604.211243,733.335022 604.506714,733.143250 605.191895,733.428467 
	C605.737915,732.210205 606.283936,730.991943 606.859070,729.891602 
	C606.859070,729.891602 606.739197,729.871521 607.452393,729.700073 
	C614.606323,720.359192 612.022705,705.876465 607.632935,697.760498 
	C607.403198,697.335754 606.483215,697.284363 605.969543,697.045959 
	C605.969543,697.045959 605.929749,697.122192 605.956238,696.376221 
	C605.251160,695.615417 604.546021,694.854553 603.931641,694.071167 
	C603.931641,694.071167 603.900085,694.159119 603.892578,693.495667 
	C603.423950,693.237183 602.955322,692.978760 602.354065,692.584473 
	C602.354065,692.584473 602.249207,692.426331 602.448486,691.915283 
	C602.145569,691.831543 601.842712,691.747864 601.460632,691.556641 
z"/>
<path fill="#115234" opacity="1.000000" stroke="none" 
	d="
M464.534973,946.945679 
	C464.644287,946.630676 465.215210,946.085266 465.784180,946.087280 
	C481.630463,946.143921 497.476593,946.256165 513.618530,946.635132 
	C497.608124,946.930847 481.301849,946.950562 464.534973,946.945679 
z"/>
<path fill="#FAFAF9" opacity="1.000000" stroke="none" 
	d="
M421.123871,332.560608 
	C420.607361,331.766296 420.090881,330.971985 419.184631,329.947571 
	C418.794891,329.717468 418.437073,329.554871 418.437073,329.554871 
	C418.437073,329.554871 418.318420,329.634094 418.225525,329.414124 
	C417.777710,329.066681 417.422760,328.939240 417.067810,328.811768 
	C417.067810,328.811768 417.067444,328.924347 416.883270,328.590607 
	C414.941467,327.834839 413.184082,327.046967 411.426147,327.045593 
	C384.287720,327.024170 357.149231,327.104950 329.640442,327.088379 
	C320.129730,327.884003 311.492065,330.330048 303.624756,335.192078 
	C303.624756,335.192078 303.376282,335.276489 303.088318,335.501648 
	C302.400024,335.968872 301.999725,336.210907 301.599457,336.452942 
	C301.599457,336.452942 301.705505,336.775238 301.368408,336.755432 
	C300.624847,337.114319 300.218384,337.493073 299.811920,337.871826 
	C299.811920,337.871826 299.915985,337.897156 299.646362,337.922546 
	C299.118469,338.190338 298.860168,338.432739 298.601898,338.675171 
	C298.601898,338.675171 298.768066,338.712738 298.457184,338.737335 
	C297.724670,339.152649 297.303009,339.543396 296.881378,339.934113 
	C296.881378,339.934113 296.957916,339.957550 296.690918,339.992493 
	C296.201355,340.307648 295.978760,340.587891 295.756195,340.868134 
	C295.756195,340.868134 295.896576,340.889587 295.622589,340.913940 
	C295.117310,341.216339 294.886017,341.494354 294.654755,341.772400 
	C294.654755,341.772400 294.816895,341.806946 294.542816,341.814087 
	C294.027039,342.076538 293.785339,342.331848 293.543610,342.587158 
	C293.543610,342.587158 293.798676,342.725647 293.485779,342.712524 
	C292.916962,342.858154 292.707886,343.064331 292.545624,343.318024 
	C292.545624,343.318024 292.412903,343.430664 292.212952,343.570801 
	C291.834412,343.839142 291.698334,344.002777 291.604828,344.201782 
	C291.604828,344.201782 291.310211,344.337402 291.125000,344.549927 
	C290.790527,344.874939 290.682404,345.018463 290.615448,345.193024 
	C290.615448,345.193024 290.305969,345.328918 290.131226,345.544373 
	C289.956451,345.759827 289.650085,346.145447 289.650085,346.145447 
	C289.650085,346.145447 289.272156,346.289124 289.094421,346.541626 
	C288.783722,346.901215 288.684570,347.033600 288.619141,347.191223 
	C288.619141,347.191223 288.325806,347.324738 288.124512,347.554565 
	C287.754150,347.920776 287.631622,348.090698 287.555664,348.294220 
	C287.555664,348.294220 287.404785,348.411957 287.186462,348.600037 
	C286.766052,348.961670 286.613953,349.171509 286.511902,349.417572 
	C286.511902,349.417572 286.505646,349.514221 286.266602,349.664368 
	C285.786407,350.038330 285.626434,350.309998 285.547638,350.629486 
	C285.547638,350.629486 285.688202,350.706665 285.418762,350.772278 
	C284.983093,351.153259 284.816864,351.468658 284.650604,351.784027 
	C284.650604,351.784027 284.810364,351.820648 284.539703,351.860596 
	C284.093292,352.224365 283.917542,352.548157 283.741791,352.871948 
	C283.741791,352.871948 283.886780,352.893036 283.620605,352.932007 
	C283.181793,353.292053 283.009186,353.613159 282.836609,353.934265 
	C282.836609,353.934265 282.928497,353.938263 282.664307,354.011108 
	C282.085541,354.542419 281.771027,355.000916 281.456512,355.459412 
	C281.456512,355.459412 281.491272,355.548584 281.239258,355.748199 
	C280.600098,356.596588 280.213013,357.245361 279.825897,357.894135 
	C279.825897,357.894135 279.918365,357.921082 279.636902,357.996948 
	C279.063782,358.577332 278.772095,359.081818 278.480377,359.586304 
	C278.480377,359.586304 278.656281,359.793732 278.390137,359.836029 
	C277.991913,360.206635 277.859802,360.534943 277.727692,360.863251 
	C277.727692,360.863251 277.850006,360.884674 277.583740,360.942566 
	C277.028595,361.472534 276.739716,361.944580 276.450806,362.416626 
	C276.450806,362.416626 276.433014,362.524750 276.205109,362.786560 
	C275.485382,363.892670 274.993561,364.737030 274.501740,365.581390 
	C274.501740,365.581390 274.621704,365.955414 274.383881,365.938507 
	C274.045166,366.258698 273.944275,366.595825 273.843384,366.932922 
	C273.843384,366.932922 273.929688,366.934479 273.624573,367.069580 
	C271.841095,369.782959 270.362762,372.361237 268.884430,374.939514 
	C268.884430,374.939514 268.968903,374.955780 268.689819,375.056030 
	C268.119904,375.666168 267.829010,376.176025 267.538116,376.685883 
	C267.538116,376.685883 267.674835,376.739594 267.387390,376.846588 
	C265.924744,378.078461 264.749542,379.203339 263.574310,380.328217 
	C263.574310,380.328217 263.499512,380.422668 263.165375,380.612549 
	C261.508270,381.511444 260.185303,382.220459 258.862366,382.929474 
	C251.957626,384.921051 245.173828,384.767242 238.549545,381.784363 
	C236.602249,380.907501 234.655090,380.030273 232.126114,378.923126 
	C231.049774,378.431030 230.555191,378.169067 230.060608,377.907074 
	C230.060608,377.907074 230.023026,377.995941 229.901474,377.686646 
	C228.590225,376.499298 227.400543,375.621246 226.210846,374.743225 
	C226.210846,374.743225 226.173431,374.846222 226.129547,374.575256 
	C225.790024,374.106873 225.494370,373.909424 225.198700,373.712006 
	C225.198700,373.712006 225.164581,373.820831 225.122528,373.531860 
	C224.575623,372.683807 224.070786,372.124786 223.565948,371.565735 
	C223.565948,371.565735 223.411835,371.614960 223.335098,371.305664 
	C222.881195,370.606476 222.504028,370.216553 222.126862,369.826630 
	C222.126862,369.826630 222.101044,369.914001 222.089493,369.666870 
	C222.030746,369.069519 221.861694,368.794128 221.570801,368.593567 
	C221.570801,368.593567 221.488113,368.561340 221.332062,368.195679 
	C220.099503,363.057159 218.138535,358.292999 218.091431,353.509979 
	C217.807022,324.622864 217.883987,295.731079 218.023148,266.841736 
	C218.056503,259.917267 218.783920,252.996109 219.192154,246.073441 
	C219.192154,246.073441 219.094315,246.061554 219.386230,245.977448 
	C219.882278,245.312881 220.086426,244.732422 220.290588,244.151947 
	C220.290573,244.151947 220.172379,244.131165 220.451721,244.021530 
	C220.921936,243.327927 221.112823,242.743958 221.303696,242.159988 
	C221.303696,242.159988 221.182968,242.133728 221.470840,242.028732 
	C222.244080,241.001160 222.729446,240.078598 223.214828,239.156036 
	C223.214828,239.156036 223.093033,239.086090 223.354431,239.061691 
	C223.894424,238.646927 224.173004,238.256561 224.451584,237.866196 
	C224.451584,237.866196 224.840851,237.659164 224.974884,237.388550 
	C225.108932,237.117950 225.348190,236.801620 225.348190,236.801620 
	C225.348190,236.801620 225.662048,236.670212 225.854431,236.453491 
	C226.205627,236.123077 226.312439,235.972458 226.367233,235.784958 
	C226.367233,235.784958 226.671951,235.653244 226.841751,235.448257 
	C227.011551,235.243271 227.297745,234.875839 227.297745,234.875839 
	C227.297745,234.875839 227.632095,234.771713 227.923431,234.481354 
	C228.535706,233.837204 228.856659,233.483398 229.177612,233.129608 
	C229.177612,233.129608 229.074615,233.075165 229.427826,233.026276 
	C231.877838,231.661591 233.974655,230.345764 236.071472,229.029938 
	C237.955734,228.580460 239.839996,228.130981 242.436096,227.406799 
	C244.812088,227.091400 246.476242,227.015167 248.140411,227.015060 
	C334.583130,227.009567 421.025879,226.998566 507.468597,227.014420 
	C582.251343,227.028122 657.034119,227.073090 731.816895,227.104233 
	C741.562927,230.032700 749.797363,234.877487 754.465088,245.196381 
	C755.070068,246.258499 755.321960,246.815536 755.573853,247.372559 
	C755.573853,247.372559 755.530457,247.201675 755.604675,247.662476 
	C756.092590,250.744659 756.862427,253.365524 756.866211,255.987488 
	C756.914978,290.303192 756.855408,324.619049 756.561462,359.183533 
	C755.371399,362.188965 754.442993,364.945740 753.514526,367.702545 
	C753.514526,367.702545 753.660706,367.765320 753.422974,367.861145 
	C752.927063,368.437622 752.669006,368.918274 752.410950,369.398926 
	C752.410950,369.398926 752.411560,369.507050 752.184326,369.746826 
	C751.584717,370.629578 751.212219,371.272583 750.839783,371.915558 
	C750.839783,371.915558 750.951721,371.931122 750.697021,371.987793 
	C750.266968,372.355133 750.091614,372.665833 749.916199,372.976532 
	C749.916199,372.976532 749.987610,372.984192 749.735413,373.061249 
	C749.140381,373.539398 748.797485,373.940521 748.454651,374.341644 
	C748.454651,374.341644 748.431580,374.453430 748.217896,374.586121 
	C747.798523,374.883575 747.628052,375.079102 747.492920,375.305450 
	C747.492920,375.305450 747.385986,375.422241 747.186768,375.562805 
	C746.809265,375.838135 746.663330,376.001801 746.549805,376.194336 
	C746.549805,376.194336 746.332581,376.301056 746.038025,376.555908 
	C745.013794,377.337555 744.284058,377.864380 743.554382,378.391235 
	C743.554382,378.391235 743.543701,378.485260 743.198364,378.648865 
	C735.493347,383.632996 727.176819,383.455261 718.985901,382.838989 
	C715.446594,382.572693 712.033081,380.635345 708.562378,379.457123 
	C708.462830,379.625519 708.363220,379.793915 708.279541,379.517883 
	C708.117493,378.840088 707.905090,378.643921 707.658325,378.485016 
	C707.658325,378.485016 707.556091,378.448151 707.398804,378.175201 
	C706.879639,377.525146 706.517761,377.148041 706.155823,376.770935 
	C706.155823,376.770935 706.127319,376.902283 706.132690,376.662689 
	C706.092957,376.092438 705.948486,375.813263 705.704529,375.585571 
	C705.704529,375.585571 705.645752,375.438324 705.490173,375.149231 
	C705.084412,374.433868 704.834229,374.007599 704.583984,373.581360 
	C704.583984,373.581360 704.329102,373.529785 704.320923,373.274597 
	C704.011597,372.548981 703.710388,372.078552 703.409241,371.608093 
	C703.409241,371.608093 703.379883,371.749817 703.309692,371.402283 
	C702.540161,369.966858 701.840881,368.878967 701.141602,367.791077 
	C701.141602,367.791107 701.112732,367.910675 701.088257,367.575104 
	C700.069153,365.777222 699.074585,364.314911 698.080017,362.852600 
	C698.080017,362.852570 698.058167,362.948608 698.031738,362.676392 
	C697.760010,362.136932 697.514709,361.869720 697.269470,361.602478 
	C697.269470,361.602478 697.241333,361.794159 697.267456,361.542969 
	C697.171082,361.002563 696.990784,360.755646 696.752563,360.550995 
	C696.752563,360.550995 696.660339,360.369843 696.435547,360.073395 
	C695.700012,359.035828 695.189331,358.294708 694.678589,357.553619 
	C694.678589,357.553619 694.579773,357.506317 694.417236,357.224701 
	C693.880371,356.562683 693.506042,356.182281 693.131775,355.801910 
	C693.131775,355.801910 693.106384,355.915802 693.070435,355.641724 
	C692.759460,355.125061 692.484314,354.882477 692.209229,354.639893 
	C692.209229,354.639893 692.189026,354.823059 692.180359,354.525940 
	C691.793030,353.816864 691.414368,353.404846 691.035706,352.992859 
	C684.910034,347.382294 678.784424,341.771759 672.042969,335.915222 
	C662.843262,330.197571 653.319946,327.261444 643.286926,327.119232 
	C617.702148,326.756531 592.109558,326.857300 566.521118,326.984955 
	C563.876282,326.998138 561.238586,328.438995 558.597534,329.217407 
	C558.597534,329.217438 558.389038,329.311127 558.108154,329.551147 
	C557.505737,330.169922 557.184265,330.548706 556.862732,330.927490 
	C556.862732,330.927460 556.946289,330.947693 556.671753,331.019470 
	C556.021118,331.730957 555.645020,332.370667 555.051636,333.379089 
	C554.564636,335.681244 554.060242,337.614563 554.058716,339.548248 
	C553.983643,433.700653 553.946960,527.853088 553.925903,622.005554 
	C553.924438,628.665833 554.072937,635.326050 554.081665,642.397095 
	C555.965515,648.267944 557.919434,653.727966 559.873291,659.188049 
	C559.873291,659.188049 559.898743,659.082031 559.921143,659.402039 
	C560.736694,660.953430 561.529907,662.184814 562.323181,663.416199 
	C562.323181,663.416199 562.416504,663.495667 562.584717,663.783203 
	C563.129944,664.439331 563.507019,664.807922 563.884094,665.176575 
	C563.884094,665.176575 563.917603,665.084595 563.975098,665.393494 
	C564.886108,666.602295 565.739685,667.502197 566.593201,668.402100 
	C566.593201,668.402100 566.895325,668.183411 566.850464,668.511353 
	C567.100708,669.031189 567.395752,669.222961 567.690857,669.414734 
	C567.690857,669.414734 567.740540,669.261902 567.776245,669.535278 
	C568.104309,670.010254 568.396606,670.211792 568.688904,670.413330 
	C568.688904,670.413269 568.748474,670.264832 568.831299,670.570251 
	C569.567993,671.315796 570.221741,671.755920 570.875488,672.196045 
	C570.875488,672.196045 570.901611,672.101562 570.949585,672.353210 
	C571.406799,672.907043 571.816040,673.209167 572.225281,673.511292 
	C572.225281,673.511292 572.373779,673.685913 572.673584,673.927063 
	C573.603149,674.516357 574.232910,674.864441 574.862732,675.212524 
	C574.862732,675.212524 574.887085,675.101562 574.943359,675.363586 
	C575.327209,675.769470 575.654846,675.913330 575.982483,676.057190 
	C575.982483,676.057190 575.984253,675.995239 576.129028,676.256836 
	C576.807373,676.770325 577.341003,677.022217 577.874634,677.274170 
	C577.874634,677.274170 577.896423,677.146545 578.003052,677.453003 
	C579.694824,678.592346 581.279846,679.425171 582.864929,680.257996 
	C582.864929,680.257996 582.885437,680.143555 583.009644,680.445312 
	C584.914307,681.675293 586.694702,682.603455 588.475159,683.531555 
	C588.475159,683.531555 588.564026,683.515320 588.875916,683.733093 
	C592.517273,685.792236 595.846741,687.633606 599.176208,689.474976 
	C599.176208,689.474976 599.346985,689.754944 599.586304,689.937378 
	C599.962585,690.282104 600.132202,690.395935 600.334351,690.461243 
	C600.334351,690.461243 600.444153,690.557434 600.596924,690.776001 
	C600.913513,691.202026 601.114441,691.363281 601.352417,691.478394 
	C601.352417,691.478394 601.460632,691.556641 601.586426,691.765015 
	C601.854858,692.167480 602.033813,692.318481 602.249207,692.426331 
	C602.249207,692.426331 602.354065,692.584473 602.570312,692.863892 
	C603.157715,693.481873 603.528870,693.820496 603.900085,694.159119 
	C603.900085,694.159119 603.931641,694.071167 603.979980,694.382690 
	C604.662048,695.503540 605.295898,696.312866 605.929749,697.122192 
	C605.929749,697.122192 605.969543,697.045959 605.966431,697.431763 
	C611.907043,708.364563 611.106201,719.074890 606.739197,729.871521 
	C606.739197,729.871521 606.859070,729.891602 606.573792,729.984375 
	C605.694580,731.099182 605.100708,732.121216 604.506714,733.143311 
	C604.506714,733.143250 604.211243,733.335022 604.026978,733.620972 
	C603.663330,734.081299 603.550598,734.291443 603.504395,734.537354 
	C603.585144,734.697876 603.665955,734.858398 603.360840,734.986572 
	C600.892029,736.893555 598.809143,738.832947 596.726257,740.772339 
	C596.726257,740.772339 596.865906,740.805298 596.552002,740.817871 
	C595.770935,741.185425 595.303711,741.540405 594.836487,741.895386 
	C594.836487,741.895386 594.931274,741.921448 594.706421,741.920654 
	C594.163818,741.937439 593.886963,742.053040 593.651123,742.266724 
	C593.651123,742.266724 593.458130,742.327393 593.089478,742.547607 
	C591.478638,743.220642 590.236572,743.673340 588.575745,744.100891 
	C586.367798,744.382202 584.578491,744.956604 582.789246,744.956421 
	C517.534790,744.949097 452.280304,744.888245 387.025848,744.834839 
	C387.025848,744.834839 387.024506,744.937439 386.924133,744.617310 
	C385.923035,744.183594 385.022247,744.069946 384.001160,743.678711 
	C383.153229,743.087646 382.425568,742.774170 381.697937,742.460754 
	C381.697937,742.460754 381.537506,742.338074 381.246826,742.185425 
	C380.546204,741.840149 380.136292,741.647400 379.726349,741.454712 
	C379.726349,741.454712 379.572845,741.316528 379.236450,741.103394 
	C377.751740,740.093689 376.603424,739.297241 375.455078,738.500732 
	C375.290497,738.628296 375.125946,738.755859 375.020508,738.447021 
	C374.174744,737.210938 373.269867,736.411316 372.364990,735.611694 
	C372.364990,735.611694 372.282318,735.744507 372.277527,735.487427 
	C372.120148,734.942810 371.906952,734.710876 371.633179,734.534668 
	C371.633179,734.534668 371.536957,734.500854 371.394501,734.216919 
	C370.887939,733.548828 370.523834,733.164734 370.159760,732.780640 
	C370.159760,732.780640 370.130768,732.895508 370.122864,732.639099 
	C369.927734,732.104919 369.740479,731.827087 369.553223,731.549316 
	C369.553223,731.549316 369.186829,731.527039 369.235107,731.268372 
	C368.978638,730.554565 368.673889,730.099487 368.369110,729.644348 
	C368.369110,729.644348 368.324310,729.775696 368.289551,729.455444 
	C367.871948,728.701904 367.489105,728.268616 367.106262,727.835266 
	C367.106262,727.835266 367.090576,727.948547 367.079468,727.533447 
	C364.460510,718.252930 363.932159,709.427429 367.576630,700.682129 
	C367.576630,700.682129 367.673584,700.519836 367.824158,700.221191 
	C368.172821,699.485168 368.370880,699.047852 368.568970,698.610474 
	C368.568970,698.610474 368.597992,698.489990 368.778992,698.248962 
	C369.052155,697.702942 369.129700,697.394226 369.192688,697.081848 
	C369.192688,697.081848 369.089996,697.075317 369.370728,696.985840 
	C369.915436,696.356567 370.179382,695.816772 370.443329,695.277039 
	C370.443329,695.277039 370.272034,695.219666 370.529297,695.165039 
	C370.935089,694.773682 371.083557,694.437012 371.231995,694.100281 
	C371.231995,694.100281 371.114594,694.086426 371.359436,694.055664 
	C371.896973,693.626831 372.189667,693.228638 372.482361,692.830505 
	C372.482361,692.830505 372.797485,692.649841 372.940033,692.414368 
	C373.082581,692.178894 373.356934,691.838867 373.356934,691.838867 
	C373.356934,691.838867 373.706940,691.699707 373.887115,691.462524 
	C374.204529,691.117798 374.306549,690.983521 374.373352,690.822449 
	C374.373352,690.822449 374.620026,690.716614 374.902649,690.458801 
	C375.509033,689.833191 375.832855,689.465332 376.156677,689.097534 
	C376.156677,689.097534 376.068970,689.067871 376.353516,689.027710 
	C377.241302,688.529724 377.844513,688.071960 378.447723,687.614136 
	C378.447723,687.614136 378.469360,687.520264 378.820770,687.361450 
	C382.515472,685.516479 385.858765,683.830322 389.202057,682.144165 
	C389.202057,682.144165 389.085663,682.109009 389.394836,682.112427 
	C390.195251,681.783447 390.686432,681.451050 391.177612,681.118713 
	C391.177612,681.118713 391.082214,681.088013 391.311218,681.097778 
	C391.861389,681.077698 392.137024,680.949768 392.367096,680.723633 
	C392.367096,680.723633 392.528656,680.650513 392.823151,680.468994 
	C393.543365,680.015564 393.969116,679.743713 394.394867,679.471863 
	C394.394867,679.471863 394.003723,679.263306 394.461670,679.267578 
	C395.353333,678.902466 395.786987,678.533020 396.220673,678.163574 
	C396.220673,678.163574 396.105560,678.134827 396.357422,678.128662 
	C396.887909,677.948303 397.166534,677.774109 397.445160,677.599854 
	C397.445160,677.599854 397.475159,677.513245 397.754822,677.386719 
	C398.421997,676.886108 398.809509,676.512085 399.197021,676.138062 
	C399.197021,676.138062 399.090851,676.112244 399.359497,676.088562 
	C399.889923,675.829346 400.151672,675.593811 400.413391,675.358276 
	C400.413422,675.358276 400.276825,675.325317 400.579437,675.279175 
	C401.180389,674.828979 401.478699,674.424866 401.776978,674.020752 
	C404.830963,671.052063 408.194153,668.336426 410.874084,665.061707 
	C416.342438,658.379761 418.898926,650.404297 420.396912,641.292542 
	C421.194855,635.767639 421.892731,630.873108 421.923340,625.974426 
	C422.179199,585.004700 422.312408,544.034241 422.646423,502.671875 
	C422.716888,501.165771 422.623505,500.051819 422.581299,498.476105 
	C422.698120,463.675903 422.763824,429.337402 422.904907,394.535706 
	C423.012054,376.186554 423.123535,358.300018 422.988068,340.415405 
	C422.968231,337.792572 421.774445,335.178650 421.123871,332.560608 
z"/>
<path fill="#000600" opacity="1.000000" stroke="none" 
	d="
M731.949951,226.830521 
	C657.034119,227.073090 582.251343,227.028122 507.468597,227.014420 
	C421.025879,226.998566 334.583130,227.009567 248.140411,227.015060 
	C246.476242,227.015167 244.812088,227.091400 242.694931,227.145203 
	C243.829620,226.774689 245.416992,226.057190 247.005020,226.055725 
	C306.818604,226.000397 366.632263,226.012802 426.445892,226.012314 
	C526.246399,226.011490 626.046875,226.004761 725.847351,226.028778 
	C727.925964,226.029266 730.004395,226.373123 731.949951,226.830521 
z"/>
<path fill="#012810" opacity="1.000000" stroke="none" 
	d="
M387.254944,745.159119 
	C452.280304,744.888245 517.534790,744.949097 582.789246,744.956421 
	C584.578491,744.956604 586.367798,744.382202 588.580322,744.328369 
	C589.003662,744.580994 589.018188,745.035767 589.018188,745.035767 
	C586.002136,745.687256 582.987061,746.901611 579.969849,746.907104 
	C519.058594,747.018066 458.147095,747.013367 397.235779,746.926025 
	C393.984558,746.921387 390.734619,745.985718 387.254944,745.159119 
z"/>
<path fill="#011706" opacity="1.000000" stroke="none" 
	d="
M422.829529,394.998932 
	C422.763824,429.337402 422.698120,463.675903 422.364380,498.710388 
	C422.225128,500.625610 422.353882,501.844788 422.482605,503.063995 
	C422.312408,544.034241 422.179199,585.004700 421.923340,625.974426 
	C421.892731,630.873108 421.194855,635.767639 420.421082,640.875122 
	C420.370270,571.991455 420.666077,502.896423 421.074066,433.802032 
	C421.148590,421.177887 421.680206,408.556427 422.214539,395.466003 
	C422.428223,394.998291 422.829559,394.998932 422.829529,394.998932 
z"/>
<path fill="#010E03" opacity="1.000000" stroke="none" 
	d="
M554.151733,641.986328 
	C554.072937,635.326050 553.924438,628.665833 553.925903,622.005554 
	C553.946960,527.853088 553.983643,433.700653 554.058716,339.548248 
	C554.060242,337.614563 554.564636,335.681244 555.172852,333.387115 
	C555.511353,333.026489 555.754211,333.030396 555.754211,333.030396 
	C555.501770,340.811218 555.033752,348.591949 555.029785,356.372925 
	C554.981201,451.270050 555.000854,546.167175 554.790588,641.531799 
	C554.578308,641.999268 554.151672,641.986328 554.151733,641.986328 
z"/>
<path fill="#0A3119" opacity="1.000000" stroke="none" 
	d="
M218.856995,246.249084 
	C218.783920,252.996109 218.056503,259.917267 218.023148,266.841736 
	C217.883987,295.731079 217.807022,324.622864 218.091431,353.509979 
	C218.138535,358.292999 220.099503,363.057159 221.342026,368.152466 
	C215.838654,365.207336 216.170959,359.321381 216.124268,354.223694 
	C215.857651,325.109894 215.942947,295.992218 216.041321,266.876312 
	C216.060287,261.261444 216.592834,255.642181 217.063782,250.039673 
	C217.167786,248.802582 218.016205,247.628052 218.856995,246.249084 
z"/>
<path fill="#061708" opacity="1.000000" stroke="none" 
	d="
M558.969360,329.419067 
	C561.238586,328.438995 563.876282,326.998138 566.521118,326.984955 
	C592.109558,326.857300 617.702148,326.756531 643.286926,327.119232 
	C653.319946,327.261444 662.843262,330.197571 671.701660,335.878418 
	C669.337463,335.215302 666.751831,334.096497 664.050537,333.515808 
	C655.046631,331.580414 646.043640,328.575531 636.963379,328.270416 
	C614.355469,327.510834 591.704834,327.950195 569.072327,328.082214 
	C565.825745,328.101135 562.584778,329.084015 558.969360,329.419067 
z"/>
<path fill="#020802" opacity="1.000000" stroke="none" 
	d="
M756.822998,358.934875 
	C756.855408,324.619049 756.914978,290.303192 756.866211,255.987488 
	C756.862427,253.365524 756.092590,250.744659 755.541016,247.723480 
	C756.267151,249.959427 757.870728,252.591705 757.883118,255.231476 
	C758.044312,289.500793 757.979553,323.771149 757.676025,358.500488 
	C757.194641,358.951447 757.008850,358.943146 756.822998,358.934875 
z"/>
<path fill="#031103" opacity="1.000000" stroke="none" 
	d="
M330.010742,327.161987 
	C357.149231,327.104950 384.287720,327.024170 411.426147,327.045593 
	C413.184082,327.046967 414.941467,327.834839 416.937866,328.576843 
	C388.428101,328.604370 359.679596,328.311890 330.466095,327.808899 
	C330.001129,327.598419 330.010742,327.161987 330.010742,327.161987 
z"/>
<path fill="#021304" opacity="1.000000" stroke="none" 
	d="
M422.904907,394.535706 
	C422.829559,394.998932 422.428223,394.998291 422.227844,394.997314 
	C422.015228,378.255524 422.058289,361.514374 421.948547,344.774200 
	C421.923767,341.000580 421.366394,337.230438 421.089050,333.009644 
	C421.774445,335.178650 422.968231,337.792572 422.988068,340.415405 
	C423.123535,358.300018 423.012054,376.186554 422.904907,394.535706 
z"/>
<path fill="#0A2411" opacity="1.000000" stroke="none" 
	d="
M607.095825,729.785767 
	C611.106201,719.074890 611.907043,708.364563 605.923950,697.438354 
	C606.483215,697.284363 607.403198,697.335754 607.632935,697.760498 
	C612.022705,705.876465 614.606323,720.359192 607.095825,729.785767 
z"/>
<path fill="#061708" opacity="1.000000" stroke="none" 
	d="
M708.497681,379.834717 
	C712.033081,380.635345 715.446594,382.572693 718.985901,382.838989 
	C727.176819,383.455261 735.493347,383.632996 743.155945,378.627808 
	C741.369446,379.957031 739.392090,382.558777 737.170227,382.787628 
	C729.479187,383.579803 721.698975,383.786591 713.962402,383.652740 
	C712.100037,383.620514 710.275146,381.417206 708.497681,379.834717 
z"/>
<path fill="#0A2411" opacity="1.000000" stroke="none" 
	d="
M329.640442,327.088348 
	C330.010742,327.161987 330.001129,327.598419 329.997070,327.817017 
	C324.619659,329.327484 319.202911,330.465729 313.889008,331.967834 
	C310.609863,332.894836 307.487457,334.376282 303.959717,335.400452 
	C311.492065,330.330048 320.129730,327.884003 329.640442,327.088348 
z"/>
<path fill="#0A2411" opacity="1.000000" stroke="none" 
	d="
M367.212219,700.620972 
	C363.932159,709.427429 364.460510,718.252930 367.136292,727.527283 
	C365.861969,722.984070 363.623596,718.062073 363.455902,713.070557 
	C363.317230,708.942993 365.624390,704.733154 367.212219,700.620972 
z"/>
<path fill="#0A2411" opacity="1.000000" stroke="none" 
	d="
M554.081665,642.397095 
	C554.151672,641.986328 554.578308,641.999268 554.791748,642.000610 
	C556.653198,647.466248 558.301086,652.930664 559.911133,658.791504 
	C557.919434,653.727966 555.965515,648.267944 554.081665,642.397095 
z"/>
<path fill="#0A2411" opacity="1.000000" stroke="none" 
	d="
M599.317078,689.151489 
	C595.846741,687.633606 592.517273,685.792236 588.909668,683.763062 
	C593.459351,682.813782 596.551086,685.630371 599.317078,689.151489 
z"/>
<path fill="#0A2411" opacity="1.000000" stroke="none" 
	d="
M388.807373,682.102783 
	C385.858765,683.830322 382.515472,685.516479 378.868164,687.370056 
	C380.296204,682.922974 384.930969,683.529053 388.807373,682.102783 
z"/>
<path fill="#0A2411" opacity="1.000000" stroke="none" 
	d="
M597.095215,740.821777 
	C598.809143,738.832947 600.892029,736.893555 603.226440,734.752686 
	C604.020325,739.081482 599.946289,739.218933 597.095215,740.821777 
z"/>
<path fill="#0A2411" opacity="1.000000" stroke="none" 
	d="
M269.238495,374.922607 
	C270.362762,372.361237 271.841095,369.782959 273.612183,367.028229 
	C272.467468,369.536407 271.030029,372.221069 269.238495,374.922607 
z"/>
<path fill="#061708" opacity="1.000000" stroke="none" 
	d="
M756.561401,359.183533 
	C757.008850,358.943146 757.194641,358.951447 757.658752,358.967285 
	C756.713989,361.865723 755.490967,364.756653 753.891235,367.675049 
	C754.442993,364.945740 755.371399,362.188965 756.561401,359.183533 
z"/>
<path fill="#0A3119" opacity="1.000000" stroke="none" 
	d="
M235.679352,229.027542 
	C233.974655,230.345764 231.877838,231.661591 229.451904,233.079315 
	C231.177597,231.795868 233.232422,230.410492 235.679352,229.027542 
z"/>
<path fill="#0A2411" opacity="1.000000" stroke="none" 
	d="
M263.924805,380.496796 
	C264.749542,379.203339 265.924744,378.078461 267.356506,376.779968 
	C266.500458,377.959320 265.387878,379.312347 263.924805,380.496796 
z"/>
<path fill="#0A2411" opacity="1.000000" stroke="none" 
	d="
M588.524780,683.160767 
	C586.694702,682.603455 584.914307,681.675293 582.953552,680.460571 
	C584.706970,681.046021 586.640625,681.917969 588.524780,683.160767 
z"/>
<path fill="#0A3119" opacity="1.000000" stroke="none" 
	d="
M226.175598,375.119568 
	C227.400543,375.621246 228.590225,376.499298 229.937561,377.654602 
	C228.776932,377.119904 227.458649,376.307922 226.175598,375.119568 
z"/>
<path fill="#0A2411" opacity="1.000000" stroke="none" 
	d="
M372.287354,735.997498 
	C373.269867,736.411316 374.174744,737.210938 375.263672,738.249390 
	C374.368378,737.786499 373.289032,737.084900 372.287354,735.997498 
z"/>
<path fill="#0A2411" opacity="1.000000" stroke="none" 
	d="
M582.788696,679.909790 
	C581.279846,679.425171 579.694824,678.592346 577.939819,677.466797 
	C579.417419,677.969910 581.064880,678.765747 582.788696,679.909790 
z"/>
<path fill="#061708" opacity="1.000000" stroke="none" 
	d="
M698.085205,363.211731 
	C699.074585,364.314911 700.069153,365.777222 701.149475,367.569519 
	C700.186951,366.456604 699.138672,365.013733 698.085205,363.211731 
z"/>
<path fill="#0A2411" opacity="1.000000" stroke="none" 
	d="
M375.426086,738.876526 
	C376.603424,739.297241 377.751740,740.093689 379.143066,741.059326 
	C378.056396,740.569702 376.726746,739.911011 375.426086,738.876526 
z"/>
<path fill="#0A2411" opacity="1.000000" stroke="none" 
	d="
M566.686035,668.034119 
	C565.739685,667.502197 564.886108,666.602295 563.927979,665.406860 
	C564.808594,665.962891 565.793762,666.814514 566.686035,668.034119 
z"/>
<path fill="#0A2411" opacity="1.000000" stroke="none" 
	d="
M562.493286,663.086548 
	C561.529907,662.184814 560.736694,660.953430 559.866821,659.407288 
	C560.747925,660.313965 561.705627,661.535400 562.493286,663.086548 
z"/>
<path fill="#0A2411" opacity="1.000000" stroke="none" 
	d="
M589.391113,745.023010 
	C589.018188,745.035767 589.003662,744.580994 588.999023,744.353516 
	C590.236572,743.673340 591.478638,743.220642 593.008057,742.607788 
	C592.118225,743.301880 590.941101,744.156067 589.391113,745.023010 
z"/>
<path fill="#0A2411" opacity="1.000000" stroke="none" 
	d="
M259.260864,382.931244 
	C260.185303,382.220459 261.508270,381.511444 263.108398,380.632080 
	C262.143463,381.285461 260.901428,382.109222 259.260864,382.931244 
z"/>
<path fill="#061708" opacity="1.000000" stroke="none" 
	d="
M701.100708,368.174164 
	C701.840881,368.878967 702.540161,369.966858 703.368530,371.360199 
	C702.684998,370.629517 701.872375,369.593384 701.100708,368.174164 
z"/>
<path fill="#0A2411" opacity="1.000000" stroke="none" 
	d="
M604.849365,733.285889 
	C605.100708,732.121216 605.694580,731.099182 606.559204,729.925415 
	C606.283936,730.991943 605.737915,732.210205 604.849365,733.285889 
z"/>
<path fill="#061708" opacity="1.000000" stroke="none" 
	d="
M743.911743,378.543152 
	C744.284058,377.864380 745.013794,377.337555 745.958862,376.647400 
	C745.539185,377.221069 744.904175,377.958069 743.911743,378.543152 
z"/>
<path fill="#0A2411" opacity="1.000000" stroke="none" 
	d="
M274.881897,365.590698 
	C274.993561,364.737030 275.485382,363.892670 276.159180,362.816406 
	C275.981445,363.589630 275.621765,364.594818 274.881897,365.590698 
z"/>
<path fill="#0A3119" opacity="1.000000" stroke="none" 
	d="
M222.836594,239.157822 
	C222.729446,240.078598 222.244080,241.001160 221.488983,242.087799 
	C221.632278,241.221100 222.045319,240.190353 222.836594,239.157822 
z"/>
<path fill="#061708" opacity="1.000000" stroke="none" 
	d="
M694.509766,357.903595 
	C695.189331,358.294708 695.700012,359.035828 696.368774,359.996704 
	C695.798279,359.562134 695.069580,358.907867 694.509766,357.903595 
z"/>
<path fill="#0A2411" opacity="1.000000" stroke="none" 
	d="
M605.942993,696.749207 
	C605.295898,696.312866 604.662048,695.503540 603.934570,694.393982 
	C604.546021,694.854553 605.251160,695.615417 605.942993,696.749207 
z"/>
<path fill="#012810" opacity="1.000000" stroke="none" 
	d="
M384.121490,743.956360 
	C385.022247,744.069946 385.923035,744.183594 386.974792,744.609253 
	C385.908783,744.799255 384.691772,744.677246 383.511871,744.270752 
	C383.739807,743.976379 383.930634,743.966370 384.121490,743.956360 
z"/>
<path fill="#0A2411" opacity="1.000000" stroke="none" 
	d="
M574.855713,674.839233 
	C574.232910,674.864441 573.603149,674.516357 572.774658,673.981018 
	C573.333557,674.017883 574.091187,674.241882 574.855713,674.839233 
z"/>
<path fill="#061708" opacity="1.000000" stroke="none" 
	d="
M751.210632,371.894684 
	C751.212219,371.272583 751.584717,370.629578 752.134766,369.768311 
	C752.068726,370.324615 751.825073,371.099213 751.210632,371.894684 
z"/>
<path fill="#0A3119" opacity="1.000000" stroke="none" 
	d="
M223.442932,371.920105 
	C224.070786,372.124786 224.575623,372.683807 225.175430,373.510559 
	C224.620239,373.277039 223.970078,372.775787 223.442932,371.920105 
z"/>
<path fill="#0A2411" opacity="1.000000" stroke="none" 
	d="
M570.868896,671.830200 
	C570.221741,671.755920 569.567993,671.315796 568.765747,670.615967 
	C569.365601,670.725647 570.113953,671.094971 570.868896,671.830200 
z"/>
<path fill="#0A2411" opacity="1.000000" stroke="none" 
	d="
M378.104279,687.474426 
	C377.844513,688.071960 377.241302,688.529724 376.364868,689.072632 
	C376.648041,688.549988 377.204437,687.942322 378.104279,687.474426 
z"/>
<path fill="#0A2411" opacity="1.000000" stroke="none" 
	d="
M280.196442,357.878235 
	C280.213013,357.245361 280.600098,356.596588 281.191406,355.747528 
	C281.119385,356.318939 280.843170,357.090637 280.196442,357.878235 
z"/>
<path fill="#0A3119" opacity="1.000000" stroke="none" 
	d="
M230.061340,378.204559 
	C230.555191,378.169067 231.049774,378.431030 231.766449,378.874969 
	C231.346390,378.871979 230.704239,378.687012 230.061340,378.204559 
z"/>
<path fill="#0A2411" opacity="1.000000" stroke="none" 
	d="
M384.001160,743.678711 
	C383.930634,743.966370 383.739807,743.976379 383.262360,743.998901 
	C382.487549,743.696899 381.999390,743.382385 381.604584,742.764282 
	C382.425568,742.774170 383.153229,743.087646 384.001160,743.678711 
z"/>
<path fill="#061708" opacity="1.000000" stroke="none" 
	d="
M556.057617,332.876038 
	C555.754211,333.030396 555.511353,333.026489 555.390137,333.018433 
	C555.645020,332.370667 556.021118,331.730957 556.661438,330.977722 
	C556.737427,331.483398 556.549194,332.102539 556.057617,332.876038 
z"/>
<path fill="#061708" opacity="1.000000" stroke="none" 
	d="
M690.838623,353.158142 
	C691.414368,353.404846 691.793030,353.816864 692.268921,354.500397 
	C691.791260,354.289124 691.216370,353.806305 690.838623,353.158142 
z"/>
<path fill="#061708" opacity="1.000000" stroke="none" 
	d="
M557.195374,330.918518 
	C557.184265,330.548706 557.505737,330.169922 558.029419,329.634003 
	C557.997131,329.954437 557.762573,330.431976 557.195374,330.918518 
z"/>
<path fill="#0A3119" opacity="1.000000" stroke="none" 
	d="
M228.854279,233.126984 
	C228.856659,233.483398 228.535706,233.837204 228.009338,234.328766 
	C228.046249,234.019165 228.288605,233.571777 228.854279,233.126984 
z"/>
<path fill="#020802" opacity="1.000000" stroke="none" 
	d="
M755.669922,247.023895 
	C755.321960,246.815536 755.070068,246.258499 754.730713,245.400055 
	C755.017578,245.624176 755.391785,246.149704 755.669922,247.023895 
z"/>
<path fill="#0A2411" opacity="1.000000" stroke="none" 
	d="
M301.928528,336.579651 
	C301.999725,336.210907 302.400024,335.968872 303.001312,335.599915 
	C302.887390,335.884094 302.572479,336.295227 301.928528,336.579651 
z"/>
<path fill="#0A2411" opacity="1.000000" stroke="none" 
	d="
M379.667023,741.790710 
	C380.136292,741.647400 380.546204,741.840149 381.150604,742.154846 
	C380.765930,742.226807 380.186829,742.176758 379.667023,741.790710 
z"/>
<path fill="#0A2411" opacity="1.000000" stroke="none" 
	d="
M563.886108,664.838867 
	C563.507019,664.807922 563.129944,664.439331 562.605591,663.840820 
	C562.934875,663.907715 563.411499,664.204468 563.886108,664.838867 
z"/>
<path fill="#0A2411" opacity="1.000000" stroke="none" 
	d="
M595.170166,741.899658 
	C595.303711,741.540405 595.770935,741.185425 596.536133,740.747864 
	C596.390747,741.078247 595.947327,741.491089 595.170166,741.899658 
z"/>
<path fill="#0A2411" opacity="1.000000" stroke="none" 
	d="
M572.319336,673.199890 
	C571.816040,673.209167 571.406799,672.907043 570.902771,672.367676 
	C571.343140,672.383179 571.878296,672.635864 572.319336,673.199890 
z"/>
<path fill="#0A2411" opacity="1.000000" stroke="none" 
	d="
M370.113892,695.341431 
	C370.179382,695.816772 369.915436,696.356567 369.383728,697.035583 
	C369.338806,696.585205 369.561615,695.995544 370.113892,695.341431 
z"/>
<path fill="#0A2411" opacity="1.000000" stroke="none" 
	d="
M401.484375,674.067261 
	C401.478699,674.424866 401.180389,674.828979 400.619324,675.337036 
	C400.634979,674.998596 400.913361,674.556152 401.484375,674.067261 
z"/>
<path fill="#0A2411" opacity="1.000000" stroke="none" 
	d="
M398.855835,676.129578 
	C398.809509,676.512085 398.421997,676.886108 397.796356,677.406006 
	C397.877014,677.075012 398.195831,676.598022 398.855835,676.129578 
z"/>
<path fill="#0A3119" opacity="1.000000" stroke="none" 
	d="
M219.983444,244.263397 
	C220.086426,244.732422 219.882278,245.312881 219.395691,246.025818 
	C219.300934,245.563797 219.488617,244.969330 219.983444,244.263397 
z"/>
<path fill="#0A2411" opacity="1.000000" stroke="none" 
	d="
M577.767700,676.974792 
	C577.341003,677.022217 576.807373,676.770325 576.103455,676.274353 
	C576.509033,676.245300 577.084900,676.460327 577.767700,676.974792 
z"/>
<path fill="#0A2411" opacity="1.000000" stroke="none" 
	d="
M370.145172,733.121826 
	C370.523834,733.164734 370.887939,733.548828 371.395935,734.165894 
	C371.070099,734.086914 370.600342,733.774902 370.145172,733.121826 
z"/>
<path fill="#0A2411" opacity="1.000000" stroke="none" 
	d="
M368.291199,729.994263 
	C368.673889,730.099487 368.978638,730.554565 369.418274,731.256592 
	C369.106537,731.117126 368.659943,730.730652 368.291199,729.994263 
z"/>
<path fill="#0A2411" opacity="1.000000" stroke="none" 
	d="
M367.100281,728.173706 
	C367.489105,728.268616 367.871948,728.701904 368.351807,729.424805 
	C367.997314,729.313599 367.545776,728.912842 367.100281,728.173706 
z"/>
<path fill="#0A2411" opacity="1.000000" stroke="none" 
	d="
M395.876068,678.143311 
	C395.786987,678.533020 395.353333,678.902466 394.646729,679.389587 
	C394.759674,679.045837 395.145569,678.584473 395.876068,678.143311 
z"/>
<path fill="#0A2411" opacity="1.000000" stroke="none" 
	d="
M394.054077,679.366577 
	C393.969116,679.743713 393.543365,680.015564 392.896973,680.419800 
	C393.021973,680.121887 393.367645,679.691589 394.054077,679.366577 
z"/>
<path fill="#0A3119" opacity="1.000000" stroke="none" 
	d="
M220.989960,242.277588 
	C221.112823,242.743958 220.921936,243.327927 220.471313,244.078247 
	C220.366440,243.628143 220.521317,243.011658 220.989960,242.277588 
z"/>
<path fill="#0A2411" opacity="1.000000" stroke="none" 
	d="
M390.846191,681.109619 
	C390.686432,681.451050 390.195251,681.783447 389.396393,682.173157 
	C389.564087,681.853882 390.039398,681.477234 390.846191,681.109619 
z"/>
<path fill="#0A2411" opacity="1.000000" stroke="none" 
	d="
M368.221863,698.585388 
	C368.370880,699.047852 368.172821,699.485168 367.849304,700.130066 
	C367.774139,699.745178 367.824432,699.152710 368.221863,698.585388 
z"/>
<path fill="#0A2411" opacity="1.000000" stroke="none" 
	d="
M375.827576,689.100952 
	C375.832855,689.465332 375.509033,689.833191 374.980591,690.349548 
	C375.016815,690.033508 375.257660,689.568909 375.827576,689.100952 
z"/>
<path fill="#0A2411" opacity="1.000000" stroke="none" 
	d="
M372.179321,692.722229 
	C372.189667,693.228638 371.896973,693.626831 371.372437,694.113403 
	C371.385834,693.672546 371.631073,693.143250 372.179321,692.722229 
z"/>
<path fill="#0A2411" opacity="1.000000" stroke="none" 
	d="
M603.896362,693.827393 
	C603.528870,693.820496 603.157715,693.481873 602.636597,692.931763 
	C602.955322,692.978760 603.423950,693.237183 603.896362,693.827393 
z"/>
<path fill="#061708" opacity="1.000000" stroke="none" 
	d="
M706.143188,377.114105 
	C706.517761,377.148041 706.879639,377.525146 707.399902,378.120880 
	C707.082397,378.045441 706.606445,377.751373 706.143188,377.114105 
z"/>
<path fill="#0A2411" opacity="1.000000" stroke="none" 
	d="
M276.788635,362.450989 
	C276.739716,361.944580 277.028595,361.472534 277.568268,360.882446 
	C277.588165,361.338074 277.357300,361.911713 276.788635,362.450989 
z"/>
<path fill="#0A3119" opacity="1.000000" stroke="none" 
	d="
M224.157333,237.756363 
	C224.173004,238.256561 223.894424,238.646927 223.390350,239.122040 
	C223.397583,238.686722 223.630325,238.166626 224.157333,237.756363 
z"/>
<path fill="#061708" opacity="1.000000" stroke="none" 
	d="
M752.765076,369.431976 
	C752.669006,368.918274 752.927063,368.437622 753.398438,367.785461 
	C753.447571,368.230988 753.283386,368.848022 752.765076,369.431976 
z"/>
<path fill="#0A2411" opacity="1.000000" stroke="none" 
	d="
M278.818359,359.572693 
	C278.772095,359.081818 279.063782,358.577332 279.621765,357.951233 
	C279.644165,358.406158 279.400269,358.982605 278.818359,359.572693 
z"/>
<path fill="#061708" opacity="1.000000" stroke="none" 
	d="
M693.123291,356.145447 
	C693.506042,356.182281 693.880371,356.562683 694.411621,357.170197 
	C694.084045,357.094543 693.599365,356.791779 693.123291,356.145447 
z"/>
<path fill="#0A3119" opacity="1.000000" stroke="none" 
	d="
M222.124664,370.163025 
	C222.504028,370.216553 222.881195,370.606476 223.388916,371.245300 
	C223.053802,371.162598 222.588135,370.830994 222.124664,370.163025 
z"/>
<path fill="#061708" opacity="1.000000" stroke="none" 
	d="
M703.317200,371.964355 
	C703.710388,372.078552 704.011597,372.548981 704.450928,373.270020 
	C704.134399,373.120575 703.679749,372.720581 703.317200,371.964355 
z"/>
<path fill="#061708" opacity="1.000000" stroke="none" 
	d="
M748.770020,374.412842 
	C748.797485,373.940521 749.140381,373.539398 749.723206,373.027466 
	C749.670593,373.439087 749.377991,373.961578 748.770020,374.412842 
z"/>
<path fill="#061708" opacity="1.000000" stroke="none" 
	d="
M704.443726,373.919678 
	C704.834229,374.007599 705.084412,374.433868 705.461060,375.075500 
	C705.159546,374.946594 704.731506,374.602295 704.443726,373.919678 
z"/>
<path fill="#0A2411" opacity="1.000000" stroke="none" 
	d="
M267.866028,376.640076 
	C267.829010,376.176025 268.119904,375.666168 268.671265,375.017212 
	C268.685852,375.450195 268.439880,376.022247 267.866028,376.640076 
z"/>
<path fill="#0A2411" opacity="1.000000" stroke="none" 
	d="
M297.214050,339.919373 
	C297.303009,339.543396 297.724670,339.152649 298.425659,338.658203 
	C298.318939,339.004547 297.932831,339.454590 297.214050,339.919373 
z"/>
<path fill="#0A2411" opacity="1.000000" stroke="none" 
	d="
M300.153625,337.879333 
	C300.218384,337.493073 300.624847,337.114319 301.288574,336.605713 
	C301.195679,336.946198 300.845520,337.416534 300.153625,337.879333 
z"/>
<path fill="#0A2411" opacity="1.000000" stroke="none" 
	d="
M281.789062,355.488800 
	C281.771027,355.000916 282.085541,354.542419 282.653229,353.966461 
	C282.644775,354.405396 282.383179,354.961792 281.789062,355.488800 
z"/>
<path fill="#0A2411" opacity="1.000000" stroke="none" 
	d="
M284.016663,352.775146 
	C283.917542,352.548157 284.093292,352.224365 284.521729,351.780640 
	C284.613495,351.999939 284.452515,352.339142 284.016663,352.775146 
z"/>
<path fill="#0A2411" opacity="1.000000" stroke="none" 
	d="
M368.943939,697.215027 
	C369.129700,697.394226 369.052155,697.702942 368.817841,698.200684 
	C368.682190,698.045044 368.688690,697.696655 368.943939,697.215027 
z"/>
<path fill="#0A3119" opacity="1.000000" stroke="none" 
	d="
M227.106613,234.750092 
	C227.297745,234.875839 227.011551,235.243271 226.906219,235.295303 
	C226.800888,235.347336 226.591522,234.942322 226.591522,234.942322 
	C226.591522,234.942322 226.915482,234.624344 227.106613,234.750092 
z"/>
<path fill="#0A2411" opacity="1.000000" stroke="none" 
	d="
M603.775757,734.548279 
	C603.550598,734.291443 603.663330,734.081299 603.981567,733.791138 
	C604.096008,733.970032 604.071594,734.264587 603.775757,734.548279 
z"/>
<path fill="#0A2411" opacity="1.000000" stroke="none" 
	d="
M283.096802,353.827820 
	C283.009186,353.613159 283.181793,353.292053 283.609467,352.859619 
	C283.695343,353.072601 283.526154,353.396973 283.096802,353.827820 
z"/>
<path fill="#0A2411" opacity="1.000000" stroke="none" 
	d="
M284.939423,351.705994 
	C284.816864,351.468658 284.983093,351.153259 285.382843,350.700623 
	C285.486969,350.918213 285.357605,351.273102 284.939423,351.705994 
z"/>
<path fill="#0A2411" opacity="1.000000" stroke="none" 
	d="
M370.962830,694.216309 
	C371.083557,694.437012 370.935089,694.773682 370.548553,695.253296 
	C370.438232,695.041565 370.565918,694.686951 370.962830,694.216309 
z"/>
<path fill="#0A2411" opacity="1.000000" stroke="none" 
	d="
M285.844574,350.602142 
	C285.626434,350.309998 285.786407,350.038330 286.218689,349.671143 
	C286.320343,349.876770 286.230927,350.225769 285.844574,350.602142 
z"/>
<path fill="#0A2411" opacity="1.000000" stroke="none" 
	d="
M286.791382,349.465454 
	C286.613953,349.171509 286.766052,348.961670 287.128967,348.676514 
	C287.216797,348.881042 287.143829,349.197205 286.791382,349.465454 
z"/>
<path fill="#0A2411" opacity="1.000000" stroke="none" 
	d="
M287.804047,348.380310 
	C287.631622,348.090698 287.754150,347.920776 288.058533,347.701599 
	C288.146698,347.901306 288.099579,348.183838 287.804047,348.380310 
z"/>
<path fill="#0A2411" opacity="1.000000" stroke="none" 
	d="
M288.834290,347.309509 
	C288.684570,347.033600 288.783722,346.901215 289.024780,346.731415 
	C289.132874,346.668701 289.390472,347.082214 289.390472,347.082214 
	C289.390472,347.082214 289.049408,347.427826 288.834290,347.309509 
z"/>
<path fill="#0A2411" opacity="1.000000" stroke="none" 
	d="
M369.492310,731.837280 
	C369.740479,731.827087 369.927734,732.104919 370.181458,732.630371 
	C369.975739,732.627136 369.703552,732.376160 369.492310,731.837280 
z"/>
<path fill="#0A2411" opacity="1.000000" stroke="none" 
	d="
M289.857117,346.276550 
	C289.650085,346.145447 289.956451,345.759827 290.064941,345.699829 
	C290.173401,345.639801 290.409454,346.066254 290.409454,346.066254 
	C290.409454,346.066254 290.064148,346.407684 289.857117,346.276550 
z"/>
<path fill="#0A2411" opacity="1.000000" stroke="none" 
	d="
M600.409790,690.211670 
	C600.132202,690.395935 599.962585,690.282104 599.741699,689.989807 
	C599.933594,689.893921 600.209351,689.927979 600.409790,690.211670 
z"/>
<path fill="#0A2411" opacity="1.000000" stroke="none" 
	d="
M371.563019,734.821899 
	C371.906952,734.710876 372.120148,734.942810 372.349365,735.456543 
	C372.114960,735.491455 371.803894,735.300232 371.563019,734.821899 
z"/>
<path fill="#0A2411" opacity="1.000000" stroke="none" 
	d="
M290.837219,345.310120 
	C290.682404,345.018463 290.790527,344.874939 291.059814,344.698425 
	C291.179840,344.634399 291.410645,345.076172 291.410645,345.076172 
	C291.410645,345.076172 291.059021,345.427216 290.837219,345.310120 
z"/>
<path fill="#0A2411" opacity="1.000000" stroke="none" 
	d="
M291.843750,344.314819 
	C291.698334,344.002777 291.834412,343.839142 292.155579,343.636230 
	C292.226288,343.850281 292.154480,344.139099 291.843750,344.314819 
z"/>
<path fill="#0A2411" opacity="1.000000" stroke="none" 
	d="
M292.825958,343.400177 
	C292.707886,343.064331 292.916962,342.858154 293.378296,342.615051 
	C293.424561,342.847870 293.265442,343.165100 292.825958,343.400177 
z"/>
<path fill="#0A2411" opacity="1.000000" stroke="none" 
	d="
M293.844574,342.590271 
	C293.785339,342.331848 294.027039,342.076538 294.523071,341.733582 
	C294.566803,341.961761 294.356171,342.277588 293.844574,342.590271 
z"/>
<path fill="#0A2411" opacity="1.000000" stroke="none" 
	d="
M294.941772,341.720306 
	C294.886017,341.494354 295.117310,341.216339 295.612305,340.843689 
	C295.660278,341.055420 295.444519,341.361816 294.941772,341.720306 
z"/>
<path fill="#0A2411" opacity="1.000000" stroke="none" 
	d="
M593.900146,742.388672 
	C593.886963,742.053040 594.163818,741.937439 594.705200,741.871521 
	C594.668884,742.052307 594.409058,742.281433 593.900146,742.388672 
z"/>
<path fill="#0A2411" opacity="1.000000" stroke="none" 
	d="
M296.025696,340.799011 
	C295.978760,340.587891 296.201355,340.307648 296.691071,339.952454 
	C296.737213,340.161652 296.516205,340.445801 296.025696,340.799011 
z"/>
<path fill="#0A2411" opacity="1.000000" stroke="none" 
	d="
M298.894165,338.662567 
	C298.860168,338.432739 299.118469,338.190338 299.640625,337.869293 
	C299.665131,338.077087 299.425751,338.363525 298.894165,338.662567 
z"/>
<path fill="#0A3119" opacity="1.000000" stroke="none" 
	d="
M225.157349,236.691284 
	C225.348190,236.801620 225.108932,237.117950 225.026917,237.174347 
	C224.944885,237.230743 224.666626,236.895096 224.666626,236.895096 
	C224.666626,236.895096 224.966507,236.580933 225.157349,236.691284 
z"/>
<path fill="#0A2411" opacity="1.000000" stroke="none" 
	d="
M274.099121,366.798035 
	C273.944275,366.595825 274.045166,366.258698 274.345093,365.745972 
	C274.481018,365.934631 274.417938,366.298920 274.099121,366.798035 
z"/>
<path fill="#061708" opacity="1.000000" stroke="none" 
	d="
M707.580688,378.781311 
	C707.905090,378.643921 708.117493,378.840088 708.413330,379.256744 
	C708.188477,379.319214 707.845764,379.198425 707.580688,378.781311 
z"/>
<path fill="#061708" opacity="1.000000" stroke="none" 
	d="
M746.803467,376.323914 
	C746.663330,376.001801 746.809265,375.838135 747.127930,375.615906 
	C747.197998,375.836761 747.127563,376.145111 746.803467,376.323914 
z"/>
<path fill="#061708" opacity="1.000000" stroke="none" 
	d="
M705.588867,375.853638 
	C705.948486,375.813263 706.092957,376.092438 706.199402,376.654663 
	C705.998230,376.631348 705.735718,376.376495 705.588867,375.853638 
z"/>
<path fill="#0A3119" opacity="1.000000" stroke="none" 
	d="
M226.148346,235.682770 
	C226.312439,235.972458 226.205627,236.123077 225.919739,236.296417 
	C225.792679,236.356049 225.591248,235.919815 225.591248,235.919815 
	C225.591248,235.919815 225.929459,235.580566 226.148346,235.682770 
z"/>
<path fill="#061708" opacity="1.000000" stroke="none" 
	d="
M747.777222,375.396484 
	C747.628052,375.079102 747.798523,374.883575 748.164795,374.607056 
	C748.237366,374.826019 748.149475,375.156799 747.777222,375.396484 
z"/>
<path fill="#0A3119" opacity="1.000000" stroke="none" 
	d="
M225.265686,373.987976 
	C225.494370,373.909424 225.790024,374.106873 226.182129,374.559814 
	C225.963272,374.631561 225.647980,374.447784 225.265686,373.987976 
z"/>
<path fill="#0A2411" opacity="1.000000" stroke="none" 
	d="
M567.648438,669.116089 
	C567.395752,669.222961 567.100708,669.031189 566.685974,668.599243 
	C566.912903,668.511902 567.259460,668.664673 567.648438,669.116089 
z"/>
<path fill="#0A2411" opacity="1.000000" stroke="none" 
	d="
M568.649902,670.114746 
	C568.396606,670.211792 568.104309,670.010254 567.700378,669.561707 
	C567.929443,669.481873 568.270142,669.649048 568.649902,670.114746 
z"/>
<path fill="#061708" opacity="1.000000" stroke="none" 
	d="
M750.154419,372.852142 
	C750.091614,372.665833 750.266968,372.355133 750.693298,371.931396 
	C750.760376,372.121490 750.576538,372.424622 750.154419,372.852142 
z"/>
<path fill="#0A3119" opacity="1.000000" stroke="none" 
	d="
M221.503845,368.868500 
	C221.861694,368.794128 222.030746,369.069519 222.134720,369.661377 
	C221.939972,369.649841 221.688431,369.396637 221.503845,368.868500 
z"/>
<path fill="#0A2411" opacity="1.000000" stroke="none" 
	d="
M400.120056,675.360840 
	C400.151672,675.593811 399.889923,675.829346 399.366638,676.142700 
	C399.345612,675.934875 399.586151,675.649109 400.120056,675.360840 
z"/>
<path fill="#0A2411" opacity="1.000000" stroke="none" 
	d="
M575.859863,675.815674 
	C575.654846,675.913330 575.327209,675.769470 574.887268,675.372498 
	C575.095642,675.270996 575.416443,675.422546 575.859863,675.815674 
z"/>
<path fill="#061708" opacity="1.000000" stroke="none" 
	d="
M692.265442,354.928528 
	C692.484314,354.882477 692.759460,355.125061 693.128479,355.635620 
	C692.922180,355.674805 692.621887,355.445984 692.265442,354.928528 
z"/>
<path fill="#0A2411" opacity="1.000000" stroke="none" 
	d="
M397.162415,677.524902 
	C397.166534,677.774109 396.887909,677.948303 396.366760,678.187256 
	C396.376068,677.984680 396.627869,677.717346 397.162415,677.524902 
z"/>
<path fill="#061708" opacity="1.000000" stroke="none" 
	d="
M697.298584,361.894531 
	C697.514709,361.869720 697.760010,362.136932 698.080933,362.676636 
	C697.880371,362.694916 697.604004,362.440765 697.298584,361.894531 
z"/>
<path fill="#061708" opacity="1.000000" stroke="none" 
	d="
M696.631958,360.825439 
	C696.990784,360.755646 697.171082,361.002563 697.359741,361.513611 
	C697.121094,361.523621 696.816162,361.311737 696.631958,360.825439 
z"/>
<path fill="#0A2411" opacity="1.000000" stroke="none" 
	d="
M392.113647,680.604858 
	C392.137024,680.949768 391.861389,681.077698 391.312317,681.147827 
	C391.343018,680.954224 391.601593,680.720154 392.113647,680.604858 
z"/>
<path fill="#0A2411" opacity="1.000000" stroke="none" 
	d="
M278.003784,360.753510 
	C277.859802,360.534943 277.991913,360.206635 278.333252,359.712524 
	C278.454926,359.912415 278.367401,360.278076 278.003784,360.753510 
z"/>
<path fill="#031103" opacity="1.000000" stroke="none" 
	d="
M418.389587,329.746063 
	C418.437073,329.554871 418.794891,329.717468 418.892151,329.888306 
	C418.773621,330.018494 418.557861,329.977875 418.389587,329.746063 
z"/>
<path fill="#031103" opacity="1.000000" stroke="none" 
	d="
M417.202698,329.078247 
	C417.422760,328.939240 417.777710,329.066681 418.295105,329.429962 
	C418.084229,329.558746 417.710907,329.451721 417.202698,329.078247 
z"/>
<path fill="#0A2411" opacity="1.000000" stroke="none" 
	d="
M374.158813,690.700562 
	C374.306549,690.983521 374.204529,691.117798 373.955933,691.287231 
	C373.844543,691.349182 373.599365,690.924683 373.599365,690.924683 
	C373.599365,690.924683 373.944244,690.578674 374.158813,690.700562 
z"/>
<path fill="#0A2411" opacity="1.000000" stroke="none" 
	d="
M601.420410,691.202820 
	C601.114441,691.363281 600.913513,691.202026 600.645447,690.830566 
	C600.856934,690.753479 601.172668,690.840332 601.420410,691.202820 
z"/>
<path fill="#0A2411" opacity="1.000000" stroke="none" 
	d="
M373.156128,691.711304 
	C373.356934,691.838867 373.082581,692.178894 372.991821,692.240295 
	C372.901031,692.301697 372.625763,691.918701 372.625763,691.918701 
	C372.625763,691.918701 372.955292,691.583801 373.156128,691.711304 
z"/>
<path fill="#0A2411" opacity="1.000000" stroke="none" 
	d="
M602.348877,692.170776 
	C602.033813,692.318481 601.854858,692.167480 601.625977,691.818726 
	C601.842712,691.747864 602.145569,691.831543 602.348877,692.170776 
z"/>
<path fill="#456251" opacity="1.000000" stroke="none" 
	d="
M422.646423,502.671875 
	C422.353882,501.844788 422.225128,500.625610 422.313263,499.172119 
	C422.623505,500.051819 422.716888,501.165771 422.646423,502.671875 
z"/>
</svg>